<?xml version="1.0" standalone="no"?>
<!DOCTYPE svg PUBLIC "-//W3C//DTD SVG 20010904//EN"
 "http://www.w3.org/TR/2001/REC-SVG-20010904/DTD/svg10.dtd">
<svg version="1.0" xmlns="http://www.w3.org/2000/svg"
 width="317.000000pt" height="400.000000pt" viewBox="0 0 317.000000 400.000000"
 preserveAspectRatio="xMidYMid meet">
<metadata>
Created by potrace 1.16, written by Peter Selinger 2001-2019
</metadata>
<g transform="translate(0.000000,400.000000) scale(0.100000,-0.100000)"
fill="#fff" stroke="none">
<path d="M2718 3986 c-155 -55 -288 -218 -459 -560 -49 -99 -89 -173 -89 -165
0 30 -50 120 -91 164 -24 26 -62 58 -86 72 -24 14 -43 31 -43 39 0 19 -37 91
-67 131 -28 37 -102 86 -155 102 -26 9 -38 19 -43 38 -13 53 -63 111 -120 138
-50 25 -61 27 -132 21 -97 -8 -110 -8 -205 0 -48 4 -89 2 -112 -6 -51 -17
-132 -93 -151 -143 -13 -35 -24 -45 -63 -62 -91 -37 -182 -163 -182 -253 0
-23 -8 -30 -58 -52 -146 -62 -232 -226 -203 -386 11 -57 10 -65 -15 -118 -22
-48 -25 -68 -22 -130 l3 -73 -39 33 c-80 68 -232 98 -276 54 -47 -47 -13 -118
60 -127 48 -6 100 -30 138 -62 26 -23 28 -31 6 -31 -28 0 -178 -75 -216 -109
-20 -18 -51 -59 -67 -92 -30 -59 -30 -61 -30 -232 0 -242 113 -1839 135 -1904
35 -106 109 -190 214 -241 l55 -27 1105 0 1105 0 55 27 c106 52 180 136 214
243 12 36 34 306 80 969 36 505 62 926 59 935 -9 25 -45 61 -60 61 -9 0 -12 7
-9 18 126 419 200 837 213 1202 5 158 3 194 -11 245 -37 127 -109 225 -198
269 -42 21 -66 26 -127 26 -42 -1 -93 -7 -113 -14z m197 -160 c44 -34 79 -94
101 -174 16 -57 16 -79 6 -231 -7 -93 -19 -224 -28 -292 -31 -246 -118 -634
-196 -874 l-23 -70 -90 -44 c-75 -37 -100 -45 -150 -45 -53 0 -70 5 -149 49
-83 45 -96 49 -173 53 -100 5 -159 -8 -234 -54 -57 -34 -119 -54 -119 -37 0 4
21 71 46 148 74 228 180 484 294 714 59 119 142 286 183 371 210 431 389 595
532 486z m-1668 -7 c15 -5 42 -23 59 -40 l30 -29 34 35 c42 43 87 54 129 29
39 -23 55 -62 49 -123 l-5 -49 72 -4 c88 -6 134 -31 170 -92 14 -24 28 -63 31
-88 6 -44 9 -47 52 -64 139 -53 211 -221 152 -352 l-20 -43 -32 24 c-18 14
-59 39 -90 57 -61 33 -69 51 -42 82 40 43 25 179 -25 229 -58 57 -81 57 -347
-1 -131 -29 -251 -59 -266 -66 -56 -29 -80 -95 -65 -182 9 -53 38 -93 97 -133
l24 -16 -46 -59 c-60 -76 -97 -150 -110 -222 l-11 -57 -66 66 c-93 92 -142
114 -256 114 -78 0 -97 -4 -142 -28 l-53 -27 -6 24 c-9 38 13 91 56 129 l38
35 -29 57 c-37 74 -38 124 -1 196 37 74 96 110 192 117 59 4 70 7 66 21 -29
95 -25 156 15 213 25 35 96 68 146 68 l41 0 4 60 c7 99 73 150 155 119z m467
-546 c4 -9 2 -21 -3 -26 -8 -8 -388 -96 -417 -97 -17 0 -27 31 -14 44 11 11
364 93 406 95 12 1 25 -7 28 -16z m-17 -232 c17 -29 43 -50 109 -87 49 -28
103 -68 124 -92 l38 -42 -51 -120 c-29 -69 -56 -120 -64 -120 -26 0 -141 -58
-219 -111 -118 -79 -213 -109 -308 -95 l-43 7 -28 125 c-38 173 -29 213 76
352 43 57 53 82 62 152 2 10 39 22 122 41 160 36 156 36 182 -10z m-824 -380
c90 -62 206 -245 227 -360 11 -60 13 -144 4 -178 -8 -30 -30 -29 -90 4 -98 53
-127 65 -182 74 -80 13 -162 -3 -257 -51 -135 -68 -196 -64 -342 18 -63 36
-83 53 -88 74 -8 33 9 98 34 130 24 31 115 79 202 107 74 24 123 54 201 123
119 104 201 121 291 59z m923 -273 c-2 -7 -21 -65 -42 -128 -20 -63 -38 -118
-40 -122 -2 -3 -32 8 -66 25 -57 30 -68 32 -162 32 -56 0 -116 -4 -133 -8 -31
-8 -33 -7 -33 17 0 25 3 26 55 26 115 0 220 38 345 124 67 47 85 55 76 34z
m-870 -379 c161 -81 241 -80 417 6 125 61 151 61 286 -7 l105 -53 96 0 97 0
107 54 c102 51 109 53 166 48 43 -4 75 -14 117 -39 93 -55 120 -63 223 -63 94
0 97 1 213 54 64 30 119 52 121 50 2 -2 -24 -391 -58 -864 l-62 -860 -29 -53
c-16 -30 -46 -67 -67 -84 -76 -60 -37 -58 -1147 -58 -634 0 -1029 4 -1051 10
-64 18 -123 64 -159 124 l-34 57 -58 817 c-32 449 -59 835 -59 858 l0 40 80
-40 c70 -34 92 -40 164 -44 97 -5 164 11 263 64 96 51 140 48 269 -17z"/>
<path d="M2860 3518 c-82 -94 -77 -91 -128 -82 -147 26 -251 -20 -297 -130
-42 -100 66 -150 127 -59 32 47 75 67 114 53 50 -19 128 -12 185 18 93 49 143
161 90 204 -31 24 -68 23 -91 -4z"/>
<path d="M2772 3067 c-12 -13 -22 -28 -22 -33 0 -6 -14 -23 -31 -40 -33 -32
-71 -36 -175 -20 -102 16 -217 -42 -265 -135 -39 -78 -14 -133 57 -127 33 3
41 9 64 48 36 62 85 86 145 71 56 -14 145 -14 182 0 82 30 163 123 163 186 0
66 -74 97 -118 50z"/>
<path d="M2617 2589 c-9 -5 -26 -28 -37 -50 -32 -61 -72 -76 -164 -61 -40 7
-92 10 -114 6 -93 -15 -196 -107 -209 -187 -7 -44 22 -80 65 -80 38 0 57 15
79 61 23 48 88 77 141 63 61 -18 152 -13 202 10 82 37 140 113 140 183 0 53
-55 83 -103 55z"/>
<path d="M384 1102 c-15 -10 -34 -47 -34 -67 0 -9 11 -27 25 -40 l24 -25 271
0 271 0 24 25 c14 13 25 31 25 40 0 20 -19 57 -34 67 -6 4 -135 8 -286 8 -151
0 -280 -4 -286 -8z"/>
<path d="M371 804 c-27 -35 -26 -59 4 -89 l24 -25 341 0 341 0 24 25 c30 29
32 64 5 93 -21 22 -24 22 -370 22 l-349 0 -20 -26z"/>
<path d="M371 524 c-12 -15 -21 -34 -21 -44 0 -10 9 -29 21 -44 l20 -26 418 0
418 0 21 23 c28 30 28 68 -1 95 -23 22 -26 22 -439 22 l-417 0 -20 -26z"/>
<path d="M1430 530 c-11 -11 -20 -33 -20 -50 0 -56 27 -70 140 -70 113 0 140
14 140 70 0 56 -27 70 -140 70 -87 0 -103 -3 -120 -20z"/>
</g>
</svg>
